<svg width="25" height="25" viewBox="0 0 25 25" fill="none" xmlns="http://www.w3.org/2000/svg">
<path d="M7.8125 18.5L12.5 13.8125L17.1875 18.5L18.5 17.1875L13.8125 12.5L18.5 7.8125L17.1875 6.5L12.5 11.1875L7.8125 6.5L6.5 7.8125L11.1875 12.5L6.5 17.1875L7.8125 18.5ZM12.5 25C10.7917 25 9.17708 24.6719 7.65625 24.0156C6.13542 23.3594 4.80729 22.4635 3.67188 21.3281C2.53646 20.1927 1.64062 18.8646 0.984375 17.3438C0.328125 15.8229 0 14.2083 0 12.5C0 10.7708 0.328125 9.14583 0.984375 7.625C1.64062 6.10417 2.53646 4.78125 3.67188 3.65625C4.80729 2.53125 6.13542 1.64062 7.65625 0.984375C9.17708 0.328125 10.7917 0 12.5 0C14.2292 0 15.8542 0.328125 17.375 0.984375C18.8958 1.64062 20.2188 2.53125 21.3438 3.65625C22.4688 4.78125 23.3594 6.10417 24.0156 7.625C24.6719 9.14583 25 10.7708 25 12.5C25 14.2083 24.6719 15.8229 24.0156 17.3438C23.3594 18.8646 22.4688 20.1927 21.3438 21.3281C20.2188 22.4635 18.8958 23.3594 17.375 24.0156C15.8542 24.6719 14.2292 25 12.5 25ZM12.5 23.125C15.4583 23.125 17.9688 22.0885 20.0312 20.0156C22.0938 17.9427 23.125 15.4375 23.125 12.5C23.125 9.54167 22.0938 7.03125 20.0312 4.96875C17.9688 2.90625 15.4583 1.875 12.5 1.875C9.5625 1.875 7.05729 2.90625 4.98438 4.96875C2.91146 7.03125 1.875 9.54167 1.875 12.5C1.875 15.4375 2.91146 17.9427 4.98438 20.0156C7.05729 22.0885 9.5625 23.125 12.5 23.125Z" fill="white"/>
</svg>
