<svg width="19" height="23" viewBox="0 0 19 23" fill="none" xmlns="http://www.w3.org/2000/svg">
<path d="M4.72031 18.1125H14.2797V16.3875H4.72031V18.1125ZM4.72031 13.225H14.2797V11.5H4.72031V13.225ZM1.78125 23C1.30625 23 0.890625 22.8275 0.534375 22.4825C0.178125 22.1375 0 21.735 0 21.275V1.725C0 1.265 0.178125 0.8625 0.534375 0.5175C0.890625 0.1725 1.30625 0 1.78125 0H12.4984L19 6.29625V21.275C19 21.735 18.8219 22.1375 18.4656 22.4825C18.1094 22.8275 17.6938 23 17.2188 23H1.78125ZM11.6078 7.0725V1.725H1.78125V21.275H17.2188V7.0725H11.6078ZM1.78125 1.725V7.0725V1.725V21.275V1.725Z" fill="#838383"/>
</svg>
