<svg width="35" height="34" viewBox="0 0 35 34" fill="none" xmlns="http://www.w3.org/2000/svg">
<path d="M27.3906 1H7.60975C4.36298 1 1.73096 3.63202 1.73096 6.87879V26.6597C1.73096 29.9064 4.36298 32.5385 7.60975 32.5385H27.3906C30.6374 32.5385 33.2694 29.9064 33.2694 26.6597V6.87879C33.2694 3.63202 30.6374 1 27.3906 1Z" stroke="#5A8C85" stroke-width="1.57692" stroke-linecap="round" stroke-linejoin="round"/>
<path d="M21.0128 9.95573H22.7704V6.13289H20.127C16.3788 6.13289 14.6026 8.36133 14.6026 11.5361V14.5431H11.6702V18.1748H14.6026V27.4103H19.0035V18.1748H21.9359L22.7704 14.5431H19.0035V12.063C19.0035 11.0466 19.5583 9.95107 21.0175 9.95107L21.0128 9.95573Z" fill="#5A8C85"/>
</svg>
