<svg width="20" height="19" viewBox="0 0 20 19" fill="none" xmlns="http://www.w3.org/2000/svg">
<path d="M9.24792 17.1268L9.57703 17.4241L9.91145 17.1328L11.1606 16.0448L11.1607 16.0448L11.1664 16.0397C13.0191 14.375 14.3589 13.117 15.178 12.2709C16.0401 11.4083 16.8281 10.3975 17.5436 9.2418C18.278 8.05531 18.6661 6.87713 18.6661 5.71464C18.6661 4.2698 18.1596 3.02783 17.1523 2.01918C16.1663 1.00473 14.9203 0.5 13.4515 0.5C11.9328 0.5 10.6353 1.03078 9.58306 2.07592C8.53086 1.03078 7.2333 0.5 5.71464 0.5C4.24473 0.5 2.98745 1.00528 1.97622 2.01651L1.97618 2.01647L1.97098 2.02183C0.990524 3.03199 0.5 4.27322 0.5 5.71464C0.5 6.5586 0.660366 7.38612 0.977881 8.19434L0.977844 8.19435L0.98021 8.20016C1.30356 8.99383 1.87741 9.85931 2.67468 10.794L2.67463 10.7941L2.68018 10.8004C3.49227 11.7207 4.22746 12.4972 4.88513 13.1274C5.53529 13.7505 6.57397 14.7082 7.99824 15.9981L7.99874 15.9985L9.24792 17.1268Z" fill="#FBFBFB" stroke="#FBFBFB"/>
</svg>
