<svg width="18" height="17" viewBox="0 0 18 17" fill="none" xmlns="http://www.w3.org/2000/svg">
<path d="M8.58306 16.6019L7.33388 15.4737C5.91009 14.1842 4.87582 13.2305 4.23109 12.6126C3.58635 11.9948 2.86102 11.2291 2.0551 10.3158C1.27604 9.40239 0.738761 8.58303 0.443257 7.8577C0.147752 7.10551 0 6.33989 0 5.56083C0 4.24449 0.443257 3.12963 1.32977 2.21626C2.24315 1.30288 3.37144 0.846191 4.71464 0.846191C6.27275 0.846191 7.56223 1.45063 8.58306 2.65951C9.60389 1.45063 10.8934 0.846191 12.4515 0.846191C13.7947 0.846191 14.9095 1.30288 15.7961 2.21626C16.7094 3.12963 17.1661 4.24449 17.1661 5.56083C17.1661 6.60853 16.8169 7.69652 16.1184 8.82481C15.42 9.9531 14.6543 10.9336 13.8215 11.7664C13.0156 12.5992 11.6859 13.8484 9.83224 15.514L8.58306 16.6019Z" fill="#CEAC35"/>
</svg>
