<svg width="21" height="21" viewBox="0 0 21 21" fill="none" xmlns="http://www.w3.org/2000/svg">
<path d="M9.9807 18.7058L10.3098 19.003L10.6442 18.7117L11.8934 17.6238L11.8935 17.6238L11.8992 17.6186C13.7518 15.9539 15.0917 14.6959 15.9108 13.8498C16.7729 12.9872 17.5609 11.9765 18.2763 10.8207C19.0108 9.63426 19.3989 8.45608 19.3989 7.29359C19.3989 5.84875 18.8924 4.60678 17.8851 3.59812C16.8991 2.58368 15.653 2.07895 14.1843 2.07895C12.6656 2.07895 11.368 2.60973 10.3158 3.65487C9.26365 2.60973 7.96609 2.07895 6.44743 2.07895C4.97751 2.07895 3.72024 2.58423 2.709 3.59546L2.70896 3.59542L2.70377 3.60078C1.72331 4.61094 1.23279 5.85216 1.23279 7.29359C1.23279 8.13755 1.39315 8.96507 1.71067 9.77329L1.71063 9.7733L1.713 9.77911C2.03634 10.5728 2.6102 11.4383 3.40747 12.373L3.40742 12.373L3.41297 12.3793C4.22505 13.2997 4.96024 14.0761 5.61792 14.7064C6.26808 15.3295 7.30676 16.2871 8.73103 17.577L8.73153 17.5775L9.9807 18.7058Z" stroke="#FFFCFC"/>
</svg>
