<svg width="44" height="44" viewBox="0 0 44 44" fill="none" xmlns="http://www.w3.org/2000/svg">
<circle cx="22" cy="22" r="22" fill="#207B6E"/>
<path d="M22.0001 28.3281C23.4478 28.3281 24.6643 27.8451 25.6496 26.8792C26.6348 25.9132 27.1275 24.7206 27.1275 23.3012C27.1275 21.8622 26.6348 20.6646 25.6496 19.7085C24.6643 18.7524 23.4478 18.2743 22.0001 18.2743C20.5322 18.2743 19.3107 18.7524 18.3355 19.7085C17.3603 20.6646 16.8726 21.8622 16.8726 23.3012C16.8726 24.7206 17.3603 25.9132 18.3355 26.8792C19.3107 27.8451 20.5322 28.3281 22.0001 28.3281ZM11.7452 32.6453C11.2626 32.6453 10.8404 32.4679 10.4785 32.113C10.1165 31.7582 9.93555 31.3442 9.93555 30.8711V15.7018C9.93555 15.2484 10.1165 14.8393 10.4785 14.4746C10.8404 14.1099 11.2626 13.9276 11.7452 13.9276H16.1789L18.3807 11.355H25.6194L27.8212 13.9276H32.2549C32.7174 13.9276 33.1346 14.1099 33.5066 14.4746C33.8786 14.8393 34.0646 15.2484 34.0646 15.7018V30.8711C34.0646 31.3442 33.8786 31.7582 33.5066 32.113C33.1346 32.4679 32.7174 32.6453 32.2549 32.6453H11.7452Z" fill="#A1CEBD"/>
</svg>
