<svg width="34" height="34" viewBox="0 0 34 34" fill="none" xmlns="http://www.w3.org/2000/svg">
<path d="M6.8323 12.1982C7.00479 11.2891 7.16796 10.38 7.66214 9.56881C8.79034 7.72731 10.5572 7.01869 12.5899 6.97207C15.3638 6.90214 18.1423 6.9068 20.9209 6.97207C22.8043 7.01869 24.4826 7.63874 25.6295 9.27044C26.3661 10.3241 26.6412 11.5268 26.6598 12.7716C26.7018 15.4383 26.7204 18.1096 26.6598 20.7763C26.6085 22.9254 25.8626 24.7576 23.8533 25.8485C22.9255 26.352 21.9046 26.5711 20.8649 26.5851C18.1237 26.6178 15.3824 26.6457 12.6412 26.5851C10.5852 26.5385 8.79967 25.8439 7.65747 23.9837C7.1633 23.1772 7.00013 22.2634 6.82764 21.3544V12.1982H6.8323ZM16.7764 8.85086C15.415 8.85086 14.0537 8.82289 12.6924 8.85552C10.5666 8.9068 9.2612 9.89981 8.87426 11.732C8.79034 12.1189 8.72973 12.5199 8.72973 12.9161C8.71575 15.4942 8.68311 18.0723 8.7344 20.6504C8.78568 23.2145 10.0817 24.5851 12.5572 24.6784C15.3498 24.7809 18.147 24.7716 20.9395 24.6784C23.0001 24.6084 24.2262 23.6201 24.6178 21.8392C24.6878 21.5222 24.753 21.1958 24.7577 20.8695C24.7717 17.9324 24.9349 14.9907 24.6691 12.0583C24.5106 10.3194 23.3498 9.18652 21.6155 8.94876C20.0071 8.72965 18.3894 8.88349 16.7764 8.85086Z" fill="#5A8C85"/>
<path d="M21.8953 16.8089C21.886 19.5782 19.5876 21.8532 16.7671 21.8859C13.9373 21.9185 11.5876 19.5828 11.597 16.7437C11.6063 13.9511 13.9886 11.6108 16.7764 11.6667C19.6389 11.7227 21.9 13.9977 21.8907 16.8089H21.8953ZM19.9886 16.7856C19.9886 15.0234 18.5387 13.5782 16.7578 13.5688C14.9862 13.5595 13.513 15.0094 13.5084 16.767C13.5084 18.5292 14.9583 19.9744 16.7391 19.9838C18.5107 19.9931 19.9839 18.5432 19.9886 16.7856Z" fill="#5A8C85"/>
<path d="M22.0348 10.3194C22.7154 10.31 23.2935 10.8741 23.2935 11.5501C23.2935 12.1935 22.7341 12.7483 22.0767 12.7669C21.3961 12.7856 20.804 12.2308 20.7947 11.5595C20.7807 10.8835 21.3401 10.3287 22.0394 10.3194H22.0348Z" fill="#5A8C85"/>
<path d="M26.6597 1H6.87879C3.63202 1 1 3.63202 1 6.87879V26.6597C1 29.9064 3.63202 32.5385 6.87879 32.5385H26.6597C29.9064 32.5385 32.5385 29.9064 32.5385 26.6597V6.87879C32.5385 3.63202 29.9064 1 26.6597 1Z" stroke="#5A8C85" stroke-width="1.57692" stroke-linecap="round" stroke-linejoin="round"/>
</svg>
