<?xml version="1.0" encoding="UTF-8"?>
<svg id="Capa_1" data-name="Capa 1" xmlns="http://www.w3.org/2000/svg" viewBox="0 0 619.28 299">
  <defs>
    <style>
      .cls-1, .cls-2 {
        fill: #fff;
      }

      .cls-2 {
        stroke: #fff;
        stroke-miterlimit: 10;
      }
    </style>
  </defs>
  <g>
    <path class="cls-1" d="m313.65,196.97c-2.57,9.06-9.46,14.24-16.98,18.82-3.91,2.39-8.13,3.99-12.81,3.88-7.06-.17-12.98-2.81-17.3-8.51-2.15-2.84-3.09-6.18-2.81-9.72.36-4.6-1.54-5.15-5.27-5.12-5.15.04-9.9-1.78-14.56-3.6-6.57-2.56-12.61-6.13-17.58-11.24-4.42-4.55-7.72-9.87-9.96-15.79-1.15-3.04-1.26-6.28-.57-9.51.65-2.98-.35-5.6-2.41-7.58-2.98-2.88-6.41-5.25-10.52-6.26-5.02-1.24-9.76.01-14.34,2-6.65,2.88-13.15,6.08-19.16,10.14-4.11,2.77-7.98,5.91-11.96,8.88-5.11,3.83-10.21,7.65-15.32,11.48-1.8,1.36-3.57,2.76-5.54,3.89-.53.3-1.08.82-1.69.29-.56-.48-.34-1.15-.13-1.74,1.19-3.27,3.01-6.2,4.98-9.02,4.29-6.19,9.17-11.89,14.66-17.06,3.59-3.38,7.59-6.22,11.67-8.96,4.87-3.28,9.7-6.65,15.08-9.07,9.07-4.08,18.41-4.04,27.87-1.58,4.7,1.22,9.19,2.96,12.58,6.61,2.49,2.69,4.9,5.49,5.88,9.17.32,1.22.24,2.44.06,3.7-.4,2.76-.5,5.52.42,8.22,2.72,7.93,7.63,14.1,14.65,18.71,6.58,4.32,13.78,6.67,21.55,7.47,2.54.26,4.65,1.43,6.26,3.35,1.01,1.21.94,2.84,1.12,4.36.35,2.9-.15,5.98,1.23,8.67,2.56,4.98,4.93,7.36,10.91,6.11,4.56-.95,8.72-2.75,12.32-5.75,4.87-4.06,6.33-9.22,5.06-15.36-1.36-6.59-3.1-13.07-5.69-19.29-1.39-3.34-3.26-6.44-5.06-9.57-2.32-4.02-4.1-8.3-5.96-12.55-1.74-3.98-3.35-8.02-5.02-12.03-2.32-5.58-4.64-11.15-6.96-16.73-3.3-7.93-6.71-15.8-10.24-23.63-2.67-5.92-5.35-11.83-8.5-17.52-2.74-4.95-6.09-9.49-9.21-14.19-1.05-1.59-1.57-3.37-2.07-5.16-.15-.55-.35-1.32.26-1.74.61-.42,1.21.06,1.71.4,2.88,1.95,5.22,4.5,7.68,6.91,6.64,6.49,12.65,13.56,18.15,21.01,5.07,6.87,9.14,14.35,12.13,22.41,1.9,5.13,3.87,10.24,6.12,15.25,3.07,6.85,6.34,13.62,9.25,20.54,3.82,9.11,7.6,18.25,10.96,27.53,1.56,4.31,2.39,8.92,3.07,13.52.43,2.87,1.31,5.68,1.99,8.51v6.46Z"/>
    <path class="cls-1" d="m0,132.75c1.67-3.07,2.73-6.41,4.37-9.51,2.55-4.81,5.46-9.35,8.8-13.63,4.12-5.27,8.72-10.05,13.92-14.27,3.79-3.07,7.97-5.54,12.17-7.99,4.1-2.39,8.24-4.71,12.37-7.05,6.06-3.44,12.36-6.36,18.77-9.07,9.84-4.15,19.64-8.39,29.71-11.96,9.01-3.19,18.15-5.92,27.5-7.91,8.17-1.74,16.39-3.11,24.72-3.94,8.63-.85,17.27-1.25,25.91-.9,13.38.54,26.56,2.26,39.01,7.62,7.93,3.42,15.26,7.85,22.01,13.23,2.44,1.94,4.8,3.94,6.89,6.27.37.41,1,.92.69,1.42-.39.64-1.12.18-1.68,0-4.78-1.6-9.23-3.99-13.9-5.87-8.1-3.26-16.44-5.67-24.97-7.47-7.14-1.5-14.36-2.37-21.64-2.81-3.05-.19-6.1-.26-9.15-.27-14.29-.05-28.38,1.73-42.36,4.6-13.97,2.87-27.6,6.92-40.98,11.8-8.92,3.26-17.64,7.03-26.29,10.96-6.49,2.95-12.95,5.96-19.16,9.46-9.71,5.47-19.19,11.33-27.26,19.09-5.36,5.16-10.42,10.67-15.04,16.54-1.1,1.4-2.11,3.34-4.41,3.34v-1.7Z"/>
    <path class="cls-1" d="m152.48,270c-3.58-.01-7.16-.03-10.73-.04-1.85-.21-3.66-.52-5.41-1.23-3.46-1.41-3.93-4.32-3.33-6.94,1.43-6.26,3.83-12.13,7.14-17.66,1.89-3.16,3.86-6.28,6.27-9.03,5.33-6.07,8.73-7.19,16.84-4.58,1.72.55,3.41,1.2,5.09,1.87,2.34.93,4.48.52,6.13-1.4,2.69-3.13,5.81-5.85,8.55-8.92,2.43-2.73,5.26-5.18,6.71-8.65,1.42-3.39,1.94-6.95,1.31-10.59-.34-1.98-1.13-2.2-2.75-1.01-11.89,8.77-25.32,13.75-39.78,16.22-5.3.91-10.66,1.31-16.02,1.26-6.15-.06-11.96-1.59-17.06-5.22-.97-.69-1.68-.65-2.34.47-4.06,6.88-10.07,11.95-15.97,17.12-3.15,2.76-6.38,5.4-9.83,7.78-5.29,3.65-11.05,6.37-17.06,8.6-6.74,2.5-13.74,3.52-20.87,4-5.25.35-10.49.78-15.75.59-3.78-.13-7.56-.4-11.29-1.02-.49-.08-.96-.29-1.83-.55,1.7-1.07,3.37-.85,4.88-1.05,9-1.17,18.03-2.24,26.82-4.59,5.71-1.53,10.98-4.14,16.09-7.07,6.3-3.62,12.09-7.91,17.37-12.91,4.38-4.16,8.27-8.76,12.34-13.2,4.06-4.43,6.62-9.81,10.1-14.58,2.21-3.02,5.26-3.23,7.75-.44,3.42,3.85,7.67,6.46,12.32,8.45,4.51,1.93,9.23,2.98,14.17,2.87,6.61-.15,12.65-2.28,18.34-5.45,4.16-2.31,8.51-4.21,12.74-6.36,2.41-1.22,4.74-2.61,7.01-4.1,3.69-2.43,7.72-4.26,11.81-5.86,3.3-1.29,6.55-1.02,9.2,1.81,1.17,1.25,1.51,2.8,1.71,4.34.44,3.42.55,6.87.14,10.31-.39,3.26.38,6.53-.03,9.81-.43,3.43-1.8,6.33-4.1,8.91-2.02,2.27-3.73,4.83-5.79,7.06-3.6,3.9-7.32,7.69-11.1,11.42-1.61,1.58-3.6,2.67-5.74,3.49-3.47,1.32-6.55.04-9.64-1.24-2.51-1.04-4.91-2.31-7.28-3.64-2-1.12-3.78-.87-5.43.71-4.89,4.68-8.46,10.24-10.93,16.53-.54,1.37-1.26,2.65-1.67,4.08-.8,2.83.02,4.47,2.88,4.98,5.23.92,10.52,1.38,15.84,1.35.68,0,1.78-.36,1.92.49.12.74-1,.9-1.65,1.13-2.62.92-5.28,1.67-8.08,1.7Z"/>
  </g>
  <g>
    <path class="cls-2" d="m379.69,103.61v16.51h20.11v9.36h-20.11v26.58h-9.97v-61.82h31.37l2.17,9.36h-23.57Z"/>
    <path class="cls-2" d="m407.51,132.13c0-3.41.64-6.61,1.91-9.58,1.27-2.97,3.02-5.58,5.24-7.82,2.22-2.24,4.81-4,7.76-5.3,2.95-1.29,6.09-1.94,9.45-1.94s6.41.65,9.36,1.94c2.95,1.3,5.52,3.06,7.71,5.3,2.2,2.24,3.93,4.84,5.2,7.82,1.27,2.97,1.91,6.17,1.91,9.58s-.64,6.64-1.91,9.67c-1.27,3.03-3,5.67-5.2,7.9-2.2,2.24-4.77,4-7.71,5.3-2.95,1.29-6.07,1.94-9.36,1.94s-6.5-.65-9.45-1.94c-2.95-1.29-5.53-3.06-7.76-5.3-2.22-2.24-3.97-4.87-5.24-7.9-1.27-3.03-1.91-6.25-1.91-9.67Zm9.36-.09c0,2.24.39,4.31,1.17,6.23s1.83,3.56,3.16,4.95,2.92,2.47,4.77,3.27c1.85.79,3.81,1.19,5.89,1.19s4.02-.4,5.81-1.19c1.79-.79,3.37-1.88,4.72-3.27,1.36-1.38,2.43-3.03,3.21-4.95.78-1.91,1.17-3.99,1.17-6.23,0-2.12-.39-4.12-1.17-6-.78-1.88-1.85-3.5-3.21-4.86-1.36-1.35-2.93-2.43-4.72-3.22-1.79-.79-3.73-1.19-5.81-1.19s-4.04.4-5.89,1.19c-1.85.79-3.44,1.87-4.77,3.22-1.33,1.35-2.38,2.97-3.16,4.86-.78,1.88-1.17,3.89-1.17,6Z"/>
    <path class="cls-2" d="m465.49,94.25h9.53v61.82h-9.53v-61.82Z"/>
    <path class="cls-2" d="m485.77,94.25h9.53v61.82h-9.53v-61.82Z"/>
    <path class="cls-2" d="m504.75,132.13c0-3.41.64-6.61,1.91-9.58,1.27-2.97,3.02-5.58,5.24-7.82,2.22-2.24,4.81-4,7.76-5.3,2.95-1.29,6.09-1.94,9.45-1.94s6.41.65,9.36,1.94c2.95,1.3,5.52,3.06,7.71,5.3,2.2,2.24,3.93,4.84,5.2,7.82,1.27,2.97,1.91,6.17,1.91,9.58s-.64,6.64-1.91,9.67c-1.27,3.03-3,5.67-5.2,7.9-2.2,2.24-4.77,4-7.71,5.3-2.95,1.29-6.07,1.94-9.36,1.94s-6.5-.65-9.45-1.94c-2.95-1.29-5.53-3.06-7.76-5.3-2.22-2.24-3.97-4.87-5.24-7.9-1.27-3.03-1.91-6.25-1.91-9.67Zm9.36-.09c0,2.24.39,4.31,1.17,6.23s1.83,3.56,3.16,4.95,2.92,2.47,4.77,3.27c1.85.79,3.81,1.19,5.89,1.19s4.02-.4,5.81-1.19c1.79-.79,3.37-1.88,4.72-3.27,1.36-1.38,2.43-3.03,3.21-4.95.78-1.91,1.17-3.99,1.17-6.23,0-2.12-.39-4.12-1.17-6-.78-1.88-1.85-3.5-3.21-4.86-1.36-1.35-2.93-2.43-4.72-3.22-1.79-.79-3.73-1.19-5.81-1.19s-4.04.4-5.89,1.19c-1.85.79-3.44,1.87-4.77,3.22-1.33,1.35-2.38,2.97-3.16,4.86-.78,1.88-1.17,3.89-1.17,6Z"/>
    <path class="cls-2" d="m596.09,156.06l-8.58-32.15-8.58,32.15h-9.53l-12.74-47.69h9.97l7.97,32.5,8.67-32.5h8.49l8.84,32.94,8.06-32.94h9.97l-12.74,47.69h-9.79Z"/>
  </g>
  <g>
    <path class="cls-2" d="m394.69,154.59v20.66c1.5-2.24,3.42-4.03,5.76-5.39,2.34-1.35,4.98-2.03,7.93-2.03,2.37,0,4.48.46,6.33,1.37,1.85.91,3.41,2.15,4.68,3.71,1.27,1.56,2.22,3.4,2.86,5.52.63,2.12.95,4.39.95,6.8v31.17h-9.53v-28.61c0-3.59-.84-6.27-2.51-8.04-1.68-1.77-3.79-2.65-6.33-2.65-1.45,0-2.79.26-4.03.79-1.24.53-2.33,1.28-3.25,2.25-.92.97-1.63,2.09-2.12,3.36-.49,1.27-.74,2.66-.74,4.2v28.7h-9.53v-61.82h9.53Z"/>
    <path class="cls-2" d="m432.65,192.47c0-3.41.64-6.61,1.91-9.58,1.27-2.97,3.02-5.58,5.24-7.82,2.22-2.24,4.81-4,7.76-5.3,2.95-1.29,6.09-1.94,9.45-1.94s6.41.65,9.36,1.94c2.95,1.3,5.52,3.06,7.71,5.3,2.2,2.24,3.93,4.84,5.2,7.82,1.27,2.97,1.91,6.17,1.91,9.58s-.64,6.64-1.91,9.67c-1.27,3.03-3,5.67-5.2,7.9-2.2,2.24-4.77,4-7.71,5.3-2.95,1.29-6.07,1.94-9.36,1.94s-6.5-.65-9.45-1.94c-2.95-1.29-5.53-3.06-7.76-5.3-2.22-2.24-3.97-4.87-5.24-7.9-1.27-3.03-1.91-6.25-1.91-9.67Zm9.36-.09c0,2.24.39,4.31,1.17,6.23s1.83,3.56,3.16,4.95,2.92,2.47,4.77,3.27c1.85.79,3.81,1.19,5.89,1.19s4.02-.4,5.81-1.19c1.79-.79,3.37-1.88,4.72-3.27,1.36-1.38,2.43-3.03,3.21-4.95.78-1.91,1.17-3.99,1.17-6.23,0-2.12-.39-4.12-1.17-6-.78-1.88-1.85-3.5-3.21-4.86-1.36-1.35-2.93-2.43-4.72-3.22-1.79-.79-3.73-1.19-5.81-1.19s-4.04.4-5.89,1.19c-1.85.79-3.44,1.87-4.77,3.22-1.33,1.35-2.38,2.97-3.16,4.86-.78,1.88-1.17,3.89-1.17,6Z"/>
    <path class="cls-2" d="m500.6,168.72v6.09c1.5-2.35,3.38-4.11,5.63-5.25,2.25-1.15,4.56-1.72,6.93-1.72v9.27c-1.73,0-3.37.22-4.9.66-1.53.44-2.86,1.19-3.99,2.25-1.13,1.06-2.02,2.47-2.69,4.24-.67,1.77-1,3.97-1,6.62v25.52h-9.53v-47.69h9.53Z"/>
    <path class="cls-2" d="m547.92,171.19v7.95c-.81-.53-1.71-1.03-2.69-1.5-.81-.35-1.79-.68-2.95-.97-1.16-.29-2.4-.44-3.73-.44-2.25,0-4.1.48-5.55,1.46-1.45.97-2.17,2.22-2.17,3.75,0,1.24.49,2.3,1.47,3.18.98.88,2.22,1.71,3.73,2.47,1.5.77,3.11,1.55,4.81,2.34,1.7.79,3.31,1.78,4.81,2.96,1.5,1.18,2.74,2.59,3.73,4.24.98,1.65,1.47,3.71,1.47,6.18,0,2.06-.39,3.97-1.17,5.74-.78,1.77-1.89,3.28-3.34,4.55-1.45,1.27-3.19,2.27-5.24,3-2.05.74-4.38,1.1-6.98,1.1-2.02,0-3.81-.21-5.37-.62-1.56-.41-2.86-.85-3.9-1.32-1.21-.59-2.25-1.24-3.12-1.94v-8.3c.98.77,2.08,1.47,3.29,2.12,1.04.53,2.25,1.02,3.64,1.46s2.89.66,4.51.66c.98,0,1.95-.12,2.9-.35.95-.23,1.83-.62,2.64-1.15.81-.53,1.46-1.19,1.95-1.99.49-.79.74-1.75.74-2.87,0-1.59-.49-2.9-1.47-3.93-.98-1.03-2.23-1.96-3.73-2.78-1.5-.82-3.12-1.63-4.85-2.43s-3.35-1.72-4.85-2.78c-1.5-1.06-2.75-2.34-3.73-3.84-.98-1.5-1.47-3.37-1.47-5.61,0-1.88.39-3.65,1.17-5.3s1.86-3.08,3.25-4.28,3.05-2.16,4.98-2.87c1.94-.71,4.09-1.06,6.46-1.06,1.73,0,3.26.16,4.59.49,1.33.32,2.46.69,3.38,1.1,1.04.47,1.96,1,2.77,1.59Z"/>
    <path class="cls-2" d="m559.18,192.74c0-3.41.62-6.64,1.86-9.67,1.24-3.03,2.95-5.68,5.11-7.95,2.17-2.27,4.71-4.06,7.63-5.39,2.92-1.33,6.05-1.99,9.4-1.99,3.06,0,5.86.54,8.41,1.63,2.54,1.09,4.75,2.44,6.63,4.06,1.88,1.62,3.37,3.4,4.46,5.34,1.1,1.94,1.76,3.8,1.99,5.56l-32.93,17.66c1.62,2.06,3.64,3.62,6.07,4.68,2.43,1.06,4.91,1.59,7.45,1.59,2.25,0,4.33-.35,6.24-1.06,1.91-.71,3.55-1.47,4.94-2.3,1.62-1,3.09-2.12,4.42-3.36v9.36c-1.1,1.18-2.46,2.24-4.07,3.18-1.33.83-2.98,1.58-4.94,2.25-1.96.68-4.28,1.02-6.93,1.02-3.35,0-6.57-.62-9.66-1.86-3.09-1.24-5.82-2.94-8.19-5.12-2.37-2.18-4.28-4.77-5.72-7.77-1.45-3-2.17-6.3-2.17-9.89Zm35.45-10.24c-.17-.35-.58-.87-1.21-1.54s-1.44-1.34-2.43-1.99c-.98-.65-2.15-1.21-3.51-1.68-1.36-.47-2.82-.71-4.38-.71-1.91,0-3.73.38-5.46,1.15-1.73.77-3.28,1.83-4.64,3.18-1.36,1.36-2.44,3-3.25,4.95-.81,1.94-1.21,4.09-1.21,6.45,0,1.53.17,2.97.52,4.33l25.57-14.13Z"/>
  </g>
  <rect class="cls-1" x="332.04" width="7" height="299"/>
</svg>