<svg width="25" height="25" viewBox="0 0 25 25" fill="none" xmlns="http://www.w3.org/2000/svg">
<path d="M8.5625 15.5312C8.08333 15.5312 7.68229 15.3698 7.35938 15.0469C7.03646 14.724 6.875 14.3229 6.875 13.8438C6.875 13.3646 7.03646 12.9635 7.35938 12.6406C7.68229 12.3177 8.08333 12.1562 8.5625 12.1562C9.04167 12.1562 9.44271 12.3177 9.76562 12.6406C10.0885 12.9635 10.25 13.3646 10.25 13.8438C10.25 14.3229 10.0885 14.724 9.76562 15.0469C9.44271 15.3698 9.04167 15.5312 8.5625 15.5312ZM16.4688 15.5312C15.9896 15.5312 15.5885 15.3698 15.2656 15.0469C14.9427 14.724 14.7812 14.3229 14.7812 13.8438C14.7812 13.3646 14.9427 12.9635 15.2656 12.6406C15.5885 12.3177 15.9896 12.1562 16.4688 12.1562C16.9479 12.1562 17.349 12.3177 17.6719 12.6406C17.9948 12.9635 18.1562 13.3646 18.1562 13.8438C18.1562 14.3229 17.9948 14.724 17.6719 15.0469C17.349 15.3698 16.9479 15.5312 16.4688 15.5312ZM12.5 23.125C15.4583 23.125 17.9688 22.0938 20.0312 20.0312C22.0938 17.9688 23.125 15.4583 23.125 12.5C23.125 11.9583 23.0833 11.4271 23 10.9062C22.9167 10.3854 22.8125 9.90625 22.6875 9.46875C22.2708 9.57292 21.8177 9.64583 21.3281 9.6875C20.8385 9.72917 20.3333 9.75 19.8125 9.75C17.7917 9.75 15.8802 9.33333 14.0781 8.5C12.276 7.66667 10.7396 6.47917 9.46875 4.9375C8.76042 6.625 7.74479 8.09896 6.42188 9.35938C5.09896 10.6198 3.58333 11.5938 1.875 12.2812V12.5C1.875 15.4583 2.90625 17.9688 4.96875 20.0312C7.03125 22.0938 9.54167 23.125 12.5 23.125ZM12.5 25C10.7708 25 9.14583 24.6719 7.625 24.0156C6.10417 23.3594 4.78125 22.4688 3.65625 21.3438C2.53125 20.2188 1.64062 18.8958 0.984375 17.375C0.328125 15.8542 0 14.2292 0 12.5C0 10.7708 0.328125 9.14583 0.984375 7.625C1.64062 6.10417 2.53125 4.78125 3.65625 3.65625C4.78125 2.53125 6.10417 1.64062 7.625 0.984375C9.14583 0.328125 10.7708 0 12.5 0C14.2292 0 15.8542 0.328125 17.375 0.984375C18.8958 1.64062 20.2188 2.53125 21.3438 3.65625C22.4688 4.78125 23.3594 6.10417 24.0156 7.625C24.6719 9.14583 25 10.7708 25 12.5C25 14.2292 24.6719 15.8542 24.0156 17.375C23.3594 18.8958 22.4688 20.2188 21.3438 21.3438C20.2188 22.4688 18.8958 23.3594 17.375 24.0156C15.8542 24.6719 14.2292 25 12.5 25ZM9.625 2.28125C11.4583 4.42708 13.151 5.89583 14.7031 6.6875C16.2552 7.47917 17.9583 7.875 19.8125 7.875C20.3125 7.875 20.7083 7.86458 21 7.84375C21.2917 7.82292 21.6146 7.76042 21.9688 7.65625C21.0312 5.96875 19.7552 4.58333 18.1406 3.5C16.526 2.41667 14.6458 1.875 12.5 1.875C11.9375 1.875 11.4063 1.91667 10.9062 2C10.4062 2.08333 9.97917 2.17708 9.625 2.28125ZM2.15625 10.0625C3.15625 9.6875 4.29688 8.83854 5.57812 7.51562C6.85938 6.19271 7.77083 4.59375 8.3125 2.71875C6.5 3.53125 5.13021 4.56771 4.20312 5.82812C3.27604 7.08854 2.59375 8.5 2.15625 10.0625Z" fill="white"/>
</svg>
