<svg width="22" height="22" viewBox="0 0 22 22" fill="none" xmlns="http://www.w3.org/2000/svg">
<path d="M5.775 6.69167C6.01944 6.69167 6.23333 6.6 6.41667 6.41667C6.6 6.23333 6.69167 6.01944 6.69167 5.775C6.69167 5.53056 6.6 5.31667 6.41667 5.13333C6.23333 4.95 6.01944 4.85833 5.775 4.85833C5.53056 4.85833 5.31667 4.95 5.13333 5.13333C4.95 5.31667 4.85833 5.53056 4.85833 5.775C4.85833 6.01944 4.95 6.23333 5.13333 6.41667C5.31667 6.6 5.53056 6.69167 5.775 6.69167ZM5.775 11.9167C6.01944 11.9167 6.23333 11.825 6.41667 11.6417C6.6 11.4583 6.69167 11.2444 6.69167 11C6.69167 10.7556 6.6 10.5417 6.41667 10.3583C6.23333 10.175 6.01944 10.0833 5.775 10.0833C5.53056 10.0833 5.31667 10.175 5.13333 10.3583C4.95 10.5417 4.85833 10.7556 4.85833 11C4.85833 11.2444 4.95 11.4583 5.13333 11.6417C5.31667 11.825 5.53056 11.9167 5.775 11.9167ZM5.775 17.1417C6.01944 17.1417 6.23333 17.05 6.41667 16.8667C6.6 16.6833 6.69167 16.4694 6.69167 16.225C6.69167 15.9806 6.6 15.7667 6.41667 15.5833C6.23333 15.4 6.01944 15.3083 5.775 15.3083C5.53056 15.3083 5.31667 15.4 5.13333 15.5833C4.95 15.7667 4.85833 15.9806 4.85833 16.225C4.85833 16.4694 4.95 16.6833 5.13333 16.8667C5.31667 17.05 5.53056 17.1417 5.775 17.1417ZM1.83333 22C1.34444 22 0.916667 21.8167 0.55 21.45C0.183333 21.0833 0 20.6556 0 20.1667V1.83333C0 1.34444 0.183333 0.916667 0.55 0.55C0.916667 0.183333 1.34444 0 1.83333 0H15.95L22 6.05V20.1667C22 20.6556 21.8167 21.0833 21.45 21.45C21.0833 21.8167 20.6556 22 20.1667 22H1.83333ZM1.83333 20.1667H20.1667V7.05833H14.9417V1.83333H1.83333V20.1667ZM1.83333 1.83333V7.05833V1.83333V20.1667V1.83333Z" fill="white"/>
</svg>
