<svg width="20" height="25" viewBox="0 0 20 25" fill="none" xmlns="http://www.w3.org/2000/svg">
<path d="M0 21.25V19.375H2.625V9.8125C2.625 8.0625 3.14063 6.50521 4.17188 5.14062C5.20312 3.77604 6.5625 2.91667 8.25 2.5625V1.65625C8.25 1.17708 8.42188 0.78125 8.76562 0.46875C9.10938 0.15625 9.52083 0 10 0C10.4792 0 10.8906 0.15625 11.2344 0.46875C11.5781 0.78125 11.75 1.17708 11.75 1.65625V2.5625C13.4375 2.91667 14.8021 3.77604 15.8437 5.14062C16.8854 6.50521 17.4062 8.0625 17.4062 9.8125V19.375H20V21.25H0ZM10 25C9.33333 25 8.75 24.7552 8.25 24.2656C7.75 23.776 7.5 23.1875 7.5 22.5H12.5C12.5 23.1875 12.2552 23.776 11.7656 24.2656C11.276 24.7552 10.6875 25 10 25ZM4.5 19.375H15.5312V9.8125C15.5312 8.27083 15 6.95833 13.9375 5.875C12.875 4.79167 11.5729 4.25 10.0312 4.25C8.48958 4.25 7.18229 4.79167 6.10938 5.875C5.03646 6.95833 4.5 8.27083 4.5 9.8125V19.375Z" fill="white"/>
</svg>
