<svg width="13" height="13" viewBox="0 0 13 13" fill="none" xmlns="http://www.w3.org/2000/svg">
<path d="M3.99024 10.25L6.4878 8.34375L8.98536 10.25L7.98634 7.17188L10.4839 5.40625H7.43999L6.4878 2.23438L5.51999 5.40625H2.47609L4.97365 7.17188L3.99024 10.25ZM6.4878 12.75C5.63447 12.75 4.82796 12.5859 4.06829 12.2578C3.30861 11.9297 2.6452 11.4818 2.07804 10.9141C1.51089 10.3464 1.06341 9.68229 0.735604 8.92188C0.407799 8.16146 0.243896 7.35417 0.243896 6.5C0.243896 5.63542 0.407799 4.82292 0.735604 4.0625C1.06341 3.30208 1.51089 2.64062 2.07804 2.07812C2.6452 1.51562 3.30861 1.07031 4.06829 0.742188C4.82796 0.414062 5.63447 0.25 6.4878 0.25C7.35154 0.25 8.16325 0.414062 8.92292 0.742188C9.6826 1.07031 10.3434 1.51562 10.9054 2.07812C11.4673 2.64062 11.9122 3.30208 12.24 4.0625C12.5678 4.82292 12.7317 5.63542 12.7317 6.5C12.7317 7.35417 12.5678 8.16146 12.24 8.92188C11.9122 9.68229 11.4673 10.3464 10.9054 10.9141C10.3434 11.4818 9.6826 11.9297 8.92292 12.2578C8.16325 12.5859 7.35154 12.75 6.4878 12.75Z" fill="#207B6E"/>
</svg>
