<svg width="22" height="22" viewBox="0 0 22 22" fill="none" xmlns="http://www.w3.org/2000/svg">
<path d="M4.02148 11.7246C5.07878 12.7819 6.36263 13.3105 7.87305 13.3105C9.38346 13.3105 10.6673 12.7819 11.7246 11.7246C12.7819 10.6673 13.3105 9.38346 13.3105 7.87305C13.3105 6.36263 12.7819 5.07878 11.7246 4.02148C10.6673 2.96419 9.38346 2.43555 7.87305 2.43555C6.36263 2.43555 5.07878 2.96419 4.02148 4.02148C2.96419 5.07878 2.43555 6.36263 2.43555 7.87305C2.43555 9.38346 2.96419 10.6673 4.02148 11.7246ZM15.123 13.3105L21.127 19.3145L19.3145 21.127L13.3105 15.123V14.1602L12.9707 13.8203C11.5358 15.0664 9.83659 15.6895 7.87305 15.6895C5.68294 15.6895 3.8138 14.9342 2.26562 13.4238C0.755208 11.9134 0 10.0632 0 7.87305C0 5.68294 0.755208 3.83268 2.26562 2.32227C3.8138 0.774089 5.68294 0 7.87305 0C10.0632 0 11.9134 0.774089 13.4238 2.32227C14.9342 3.83268 15.6895 5.68294 15.6895 7.87305C15.6895 9.83659 15.0664 11.5358 13.8203 12.9707L14.1602 13.3105H15.123Z" fill="#718986"/>
</svg>
