<svg width="16" height="18" viewBox="0 0 16 18" fill="none" xmlns="http://www.w3.org/2000/svg">
<path d="M13.1093 12.0888C13.8078 12.0888 14.3988 12.344 14.8824 12.8544C15.3659 13.338 15.6077 13.9156 15.6077 14.5872C15.6077 15.2856 15.3525 15.8901 14.8421 16.4005C14.3585 16.884 13.7809 17.1258 13.1093 17.1258C12.4377 17.1258 11.8467 16.884 11.3363 16.4005C10.8528 15.8901 10.611 15.2856 10.611 14.5872C10.611 14.3185 10.6244 14.1305 10.6513 14.023L4.56657 10.477C4.05616 10.9337 3.46515 11.162 2.79355 11.162C2.09508 11.162 1.49064 10.9068 0.980225 10.3964C0.469808 9.88597 0.2146 9.28152 0.2146 8.58306C0.2146 7.88459 0.469808 7.28015 0.980225 6.76974C1.49064 6.25932 2.09508 6.00411 2.79355 6.00411C3.46515 6.00411 4.05616 6.23246 4.56657 6.68914L10.611 3.18339C10.5573 2.91475 10.5304 2.71327 10.5304 2.57895C10.5304 1.88048 10.7856 1.27604 11.296 0.765625C11.8064 0.255208 12.4109 0 13.1093 0C13.8078 0 14.4122 0.255208 14.9227 0.765625C15.4331 1.27604 15.6883 1.88048 15.6883 2.57895C15.6883 3.27741 15.4331 3.88185 14.9227 4.39227C14.4122 4.90269 13.8078 5.15789 13.1093 5.15789C12.4646 5.15789 11.8736 4.91612 11.3363 4.43257L5.2919 7.97862C5.34563 8.24726 5.37249 8.44874 5.37249 8.58306C5.37249 8.71738 5.34563 8.91886 5.2919 9.1875L11.4169 12.7336C11.9005 12.3037 12.4646 12.0888 13.1093 12.0888Z" fill="#F2DA84"/>
</svg>
