<svg width="22" height="27" viewBox="0 0 22 27" fill="none" xmlns="http://www.w3.org/2000/svg">
<path d="M11 13.1875C11.6042 13.1875 12.1198 12.974 12.5469 12.5469C12.974 12.1198 13.1875 11.6042 13.1875 11C13.1875 10.3958 12.974 9.88021 12.5469 9.45312C12.1198 9.02604 11.6042 8.8125 11 8.8125C10.3958 8.8125 9.88021 9.02604 9.45312 9.45312C9.02604 9.88021 8.8125 10.3958 8.8125 11C8.8125 11.6042 9.02604 12.1198 9.45312 12.5469C9.88021 12.974 10.3958 13.1875 11 13.1875ZM11 23.5312C13.7708 21.0104 15.8177 18.724 17.1406 16.6719C18.4635 14.6198 19.125 12.8125 19.125 11.25C19.125 8.79167 18.3385 6.78125 16.7656 5.21875C15.1927 3.65625 13.2708 2.875 11 2.875C8.72917 2.875 6.80729 3.65625 5.23438 5.21875C3.66146 6.78125 2.875 8.79167 2.875 11.25C2.875 12.8125 3.55208 14.6198 4.90625 16.6719C6.26042 18.724 8.29167 21.0104 11 23.5312ZM11 26C7.64583 23.1458 5.14062 20.4948 3.48438 18.0469C1.82813 15.599 1 13.3333 1 11.25C1 8.125 2.00521 5.63542 4.01562 3.78125C6.02604 1.92708 8.35417 1 11 1C13.6458 1 15.974 1.92708 17.9844 3.78125C19.9948 5.63542 21 8.125 21 11.25C21 13.3333 20.1719 15.599 18.5156 18.0469C16.8594 20.4948 14.3542 23.1458 11 26Z" fill="#CEAC35" stroke="#CEAC35"/>
</svg>
