<svg width="18" height="22" viewBox="0 0 18 22" fill="none" xmlns="http://www.w3.org/2000/svg">
<path d="M9 10.725C9.54375 10.725 10.0078 10.5371 10.3922 10.1613C10.7766 9.78542 10.9688 9.33167 10.9688 8.8C10.9688 8.26833 10.7766 7.81458 10.3922 7.43875C10.0078 7.06292 9.54375 6.875 9 6.875C8.45625 6.875 7.99219 7.06292 7.60781 7.43875C7.22344 7.81458 7.03125 8.26833 7.03125 8.8C7.03125 9.33167 7.22344 9.78542 7.60781 10.1613C7.99219 10.5371 8.45625 10.725 9 10.725ZM9 19.8275C11.4937 17.6092 13.3359 15.5971 14.5266 13.7913C15.7172 11.9854 16.3125 10.395 16.3125 9.02C16.3125 6.85667 15.6047 5.0875 14.1891 3.7125C12.7734 2.3375 11.0437 1.65 9 1.65C6.95625 1.65 5.22656 2.3375 3.81094 3.7125C2.39531 5.0875 1.6875 6.85667 1.6875 9.02C1.6875 10.395 2.29688 11.9854 3.51562 13.7913C4.73438 15.5971 6.5625 17.6092 9 19.8275ZM9 22C5.98125 19.4883 3.72656 17.1554 2.23594 15.0013C0.745313 12.8471 0 10.8533 0 9.02C0 6.27 0.904687 4.07917 2.71406 2.4475C4.52344 0.815833 6.61875 0 9 0C11.3812 0 13.4766 0.815833 15.2859 2.4475C17.0953 4.07917 18 6.27 18 9.02C18 10.8533 17.2547 12.8471 15.7641 15.0013C14.2734 17.1554 12.0188 19.4883 9 22Z" fill="#838383"/>
</svg>
