<svg width="34" height="34" viewBox="0 0 34 34" fill="none" xmlns="http://www.w3.org/2000/svg">
<path d="M12.077 24.5758L12.3707 24.7529C13.8066 25.6061 15.443 26.0583 17.098 26.0583C22.2169 26.0583 26.3847 21.8905 26.3847 16.7716C26.3847 11.6527 22.2169 7.48489 17.098 7.48489C11.9791 7.48489 7.81128 11.6527 7.81128 16.7716C7.81128 18.5805 8.33342 20.3334 9.32643 21.8485L9.51291 22.1329L8.33342 25.9511L12.0724 24.5758H12.077Z" stroke="#5A8C85" stroke-width="2.36538" stroke-linecap="round" stroke-linejoin="round"/>
<path d="M13.1819 11.3962C12.9767 11.4661 12.7996 11.592 12.5432 11.8578C11.9744 12.4545 11.7087 13.0745 11.6714 13.9137C11.6294 14.8741 12.0024 15.9323 12.8509 17.2424C14.2681 19.4289 15.6854 20.7062 17.5688 21.4895C18.5339 21.8904 19.1632 22.1002 19.5735 22.1561C19.8858 22.1981 20.5012 22.1048 20.8835 21.9603C21.2285 21.8251 21.7087 21.5128 21.9231 21.2797C22.2495 20.9207 22.5339 20.1142 22.5339 19.5454C22.5339 19.3076 22.5292 19.2797 22.4453 19.1864C22.2728 19 20.1562 17.8904 19.9045 17.8578C19.676 17.8298 19.5875 17.8904 19.2098 18.3286C18.6271 19.0093 18.4453 19.1864 18.3427 19.1864C18.2215 19.1864 17.415 18.7808 17.0327 18.5291C16.091 17.909 15.3124 17.0559 14.697 15.9696C14.6457 15.8811 14.6085 15.7971 14.6085 15.7785C14.6085 15.7598 14.7157 15.6247 14.8462 15.4848C15.1586 15.1398 15.2658 14.9813 15.3963 14.6596C15.5502 14.296 15.5455 14.1981 15.3404 13.648C15.0467 12.8461 14.9534 12.5944 14.7903 12.1608C14.6224 11.7132 14.4966 11.5174 14.3241 11.4428C14.1656 11.3776 13.3497 11.3496 13.1819 11.4009V11.3962Z" fill="#5A8C85"/>
<path d="M26.6597 1H6.87879C3.63202 1 1 3.63202 1 6.87878V26.6597C1 29.9064 3.63202 32.5385 6.87879 32.5385H26.6597C29.9064 32.5385 32.5385 29.9064 32.5385 26.6597V6.87878C32.5385 3.63202 29.9064 1 26.6597 1Z" stroke="#5A8C85" stroke-width="1.57692" stroke-linecap="round" stroke-linejoin="round"/>
</svg>
